Patient4_TMGait_0pt4_01_left_32_EMG.mot
version=1
nRows=20
nColumns=33
inDegrees=no
endheader
time	1LAddLong	2LGlutMax	3LGlutMed	4LIliopsoas	5LSemiMemb	6LBicFemLong	7LRecFem	8LVastMed	9LVastLat	10LGasMed	11LTibAnt	12lTibPost	13LPeroneusLong	14LSol	15LExtDigLong	16LFlexDigLong	17RAddLong	18RGlutMax	19RGlutMed	20RIliopsoas	21RSemiMemb	22RBicFemLong	23RRecFem	24RVastMed	25RVastLat	26RGasMed	27RTibAnt	28RTibPost	29RPeroneusLong	30RSol	31RExtDigLong	32RFlexDigLong
40.36	-0.000305	0.011444	-0.014801	0.00473	0.027771	-0.12741	-0.09079	0.002441	-0.006104	-0.16419	0.020142	0.000153	-0.12634	0.015106	0.015869	-0.014801	-0.005798	0.15091	-0.22934	0.042114	0.022125	0.31296	-0.076294	0.10696	0.074005	0.004883	0.42236	-0.048065	0.21164	-0.057526	-0.001373	-0.007019
40.361	0.009308	0.046844	0.033569	0.018616	0.001678	-0.037384	-0.10651	-0.001221	-0.004272	-0.15595	0.016174	0.007324	-0.1329	0.064697	0.13428	-0.017853	-0.001678	0.12894	-0.08316	-0.007935	-0.09552	0.26367	-0.027008	0.1239	0.084534	0.002289	0.032501	-0.047913	-0.13702	-0.067139	-0.007172	-0.010986
40.362	0.005188	0.007629	-0.035553	0.010223	-0.003052	-0.20111	-0.095062	0.003357	-0.011292	-0.098724	0.025787	0.005493	-0.074005	-0.010681	0.002441	-0.006866	0.014954	0.024872	-0.12451	-0.072937	-0.17044	0.24811	-0.019379	0.09079	0.11643	0.001373	-0.019531	-0.044098	-0.091553	-0.052032	-0.002136	-0.00412
40.363	0.008698	0.032654	-0.072632	0.019073	0.027313	-0.2803	-0.1033	-0.00412	-0.001373	-0.095367	0.02594	0.004272	0.10422	0.008392	-0.08667	-0.002441	-0.002289	0.003357	-0.12085	-0.15121	0.001373	0.22644	-0.025635	0.11429	0.20599	0.001068	-0.053406	-0.044098	0.25146	-0.043945	-0.004578	-0.006104
40.364	0.00473	0.038605	-0.078125	0.009918	0.026855	-0.063171	-0.095367	-0.002441	-0.010681	-0.016022	0.027924	-0.002747	-0.001221	0.076752	-0.090942	-0.005493	0.006714	0.10361	-0.046082	-0.056305	0.14969	0.22583	-0.001221	0.14175	0.24429	0.001068	-0.096436	-0.054779	0.466	-0.037994	-0.000458	-0.011597
40.365	0.006866	0.092163	-0.087738	0.000153	0.025482	0.000763	-0.10773	0.000153	-0.010986	0.38742	0.005035	0.003052	-0.103	0.14465	-0.18372	-0.00412	0.032349	0.13641	0.011597	0.049438	-0.053558	0.17197	-0.10681	0.090027	0.22736	0.001831	-0.11826	-0.050049	0.020599	-0.058594	0.003052	-0.016022
40.366	0.012207	0.11673	-0.003967	0.005798	0.032043	0.079803	-0.11566	0.006104	-0.021973	0.76889	-0.042267	0.003815	0.014343	0.048065	0.03418	-0.0354	0.016632	0.11826	0.06485	0.15305	-0.16464	0.20111	-0.168	0.029449	0.11719	0.006409	-0.052185	-0.04776	-0.1973	-0.09201	-0.002899	-0.007019
40.367	0.00946	0.074005	0.006714	0.002747	0.032043	-0.11688	-0.1297	0.001984	-0.025177	0.27573	-0.13001	-0.006409	0.13504	-0.050354	0.96954	-0.017548	-0.014954	0.1416	0.10208	0.08255	-0.023804	0.22827	-0.17838	0.11078	0.04364	-0.000458	0.050049	-0.049133	-0.13626	-0.10346	0.012817	-0.013428
40.368	0.001984	0.090485	-0.047302	-0.008545	0.024719	-0.24567	-0.11551	0.009613	-0.033722	-0.1474	-0.12131	0.001831	0.054626	0.063171	0.019836	-0.005341	0.013275	0.14999	0.17288	0.005188	-0.15411	0.2449	-0.18021	-0.071869	-0.058899	-0.001678	0.10254	-0.054932	-0.49316	-0.039368	0.00061	-0.013733
40.369	-0.000916	0.078125	-0.027008	-0.01297	0.014191	-0.055237	-0.11505	0.005188	-0.03479	-0.075073	-0.08194	-0.000153	0.046692	0.078278	-0.039978	-0.00473	0.018616	0.1503	0.12772	-0.023041	-0.40604	0.40527	-0.073395	-0.16083	-0.22537	0.007324	0.021973	-0.052795	-0.43274	-0.11551	0.000763	-0.010986
40.37	-0.002136	0.08728	0.016632	-0.020599	0.020905	0.035858	-0.14664	0.006104	-0.025635	0.081482	-0.032043	0.009613	0.13321	-0.004883	-0.63507	-0.003967	0.012207	0.12665	0.009308	0.012054	-0.10849	0.32013	0.00351	-0.10864	-0.24063	0.006866	-0.002899	-0.051422	-0.20676	-0.039063	-0.006866	-0.016785
40.371	-0.003357	0.069427	0.034637	0.003357	0.025787	0.11704	-0.15869	0.005035	-0.036163	0.14557	0.13901	0.00824	0.064392	-0.053711	-0.31052	0.001678	0.077057	0.15167	-0.046082	-0.006714	0.3714	0.24551	0.063934	-0.17014	-0.17364	0.006866	0.00824	-0.050659	-0.50522	0.068359	-0.001373	-0.007782
40.372	-0.007477	0.10819	0.038147	0.018616	0.02243	0.11261	-0.19241	0.006409	-0.004883	0.14923	0.168	0.010071	0.12238	-0.011597	-0.26413	0.010681	0.13428	0.15564	-0.094757	0.01709	0.25055	0.23132	0.036774	-0.14633	-0.047607	0.00061	-0.11963	-0.055695	-0.23086	0.001526	-0.002289	-0.007629
40.373	-0.002899	0.07782	0.024109	0.005493	-0.00061	0.072479	-0.21759	0.002899	-0.001678	0.039215	0.12299	0.010529	0.21194	-0.068054	-0.2243	0.003052	0.11002	0.11704	-0.1683	0.021362	0.28244	0.31036	0.031738	-0.076294	0.08728	-0.001831	-0.089264	-0.058441	0.51544	-0.041046	-0.001221	-0.006714
40.374	-0.003662	0.081024	-0.000916	0.005646	-0.01709	0.050354	-0.23773	-0.000458	0.011597	-0.17578	0.084076	0.00412	-0.18356	-0.1384	-0.053101	0.005798	0.11246	0.15671	-0.2034	-0.022278	0.3389	0.31082	0.024261	-0.11719	0.089874	0.005341	0.041656	-0.055542	0.48279	-0.076141	-0.001526	0.003204
40.375	0.003204	0.026093	0.009155	0.000763	-0.017853	0.077972	-0.22553	0.003662	0.025177	-0.30991	0.11032	0.006409	-0.44891	-0.066833	0.058746	-0.002136	0.15533	0.22201	-0.12421	-0.089264	0.31448	0.32364	0.06012	-0.25726	-0.04837	-0.001068	0.10574	-0.053101	0.21515	-0.060577	-0.003052	-0.001373
40.376	0.006104	0.050812	0.040588	0.010529	0.002289	0.090485	-0.24918	-0.001831	0.032196	-0.35889	0.035706	0.004578	-0.1651	-0.002289	0.07309	-0.049591	0.1268	0.24643	0.11627	-0.20081	0.15915	0.15823	0.078125	-0.23178	-0.13306	-0.000305	0.10193	-0.057373	0.14297	-0.055389	-0.003815	0.004272
40.377	0.013123	0.038757	0.06958	0.013885	0.01358	0.075684	-0.27435	-0.006866	0.036621	-0.40771	-0.008392	0.010834	-0.20401	-0.019073	0.10407	-0.048523	-0.014343	0.24551	0.37262	-0.18524	0.30624	-0.006561	0.011292	-0.068512	-0.15503	-0.002747	0.07019	-0.055389	0.070038	-0.054321	-0.002289	0.000763
40.378	0.010529	0.006714	0.07843	0.019684	0.027618	0.088806	-0.23956	-0.005951	0.016479	0.30563	0.019379	-0.049286	-0.1651	0.052643	0.081482	0.055389	-0.072174	0.20264	0.27832	-0.01709	-0.13138	-0.016174	-0.12573	0.10315	-0.067749	-0.006104	0.11688	-0.058594	-0.001068	-0.063019	-0.009155	-0.015259
40.379	0.00824	0.007324	0.10269	0.006256	0.032349	0.10361	-0.20004	0.007935	-0.015717	0.84732	-0.015411	0.093689	0.17929	0.072632	0.079956	-0.031128	-0.097961	0.25421	0.072784	0.096436	-0.28015	0.24933	-0.10757	0.19821	-0.002289	0.001678	0.11246	-0.05249	0.014343	-0.10941	-0.005188	-0.007629
